<?xml version="1.0" encoding="utf-8"?>
<!-- Generator: Adobe Illustrator 16.0.0, SVG Export Plug-In . SVG Version: 6.00 Build 0)  -->
<!DOCTYPE svg PUBLIC "-//W3C//DTD SVG 1.1//EN" "http://www.w3.org/Graphics/SVG/1.1/DTD/svg11.dtd">
<svg version="1.1" id="Layer_1" xmlns="http://www.w3.org/2000/svg" xmlns:xlink="http://www.w3.org/1999/xlink" x="0px" y="0px"
	 width="48px" height="48px" viewBox="0 0 48 48" enable-background="new 0 0 48 48" xml:space="preserve">
<g>
	<g>
		<g>
			<path fill="#777777" d="M3.807,11.578c-0.349,0-0.631-0.282-0.631-0.63v-0.126c0-0.349,0.282-0.631,0.631-0.631
				c0.348,0,0.63,0.282,0.63,0.631v0.126C4.437,11.296,4.154,11.578,3.807,11.578z"/>
			<path fill="#777777" d="M3.988,8.958c-0.087,0-0.176-0.018-0.259-0.056C3.412,8.759,3.271,8.386,3.415,8.069l0.071-0.146
				c0.16-0.308,0.541-0.426,0.851-0.266c0.309,0.162,0.427,0.542,0.266,0.851l-0.04,0.079C4.458,8.82,4.229,8.958,3.988,8.958z"/>
			<path fill="#777777" d="M6.079,7.701c-0.289,0-0.551-0.2-0.615-0.494c-0.075-0.34,0.14-0.676,0.479-0.751
				c0.339-0.077,0.738,0.127,0.813,0.467C6.831,7.262,6.677,7.585,6.338,7.66L6.215,7.686C6.169,7.697,6.123,7.701,6.079,7.701z"/>
		</g>
	</g>
	<path fill="none" stroke="#494949" stroke-linecap="round" stroke-linejoin="round" stroke-miterlimit="10" d="M8.355,6.424
		l15.923-3.439h0.037h0.007h0.036L43.086,7.03c0.762,0.164,1.406,0.795,1.643,1.524v0.001c0.06,0.19,0.096,0.387,0.096,0.586v1.058
		v2.219v0.001v1.662v2.221l0,0v1.662v2.222l0,0v1.663v2.218v0.001v1.663v2.219v1.665v2.219v1.663v0.002v2.217v1.666v0.34v6.879
		c0,0.058-0.004,0.111-0.01,0.164c-0.002,0.019-0.006,0.037-0.006,0.054c-0.006,0.034-0.01,0.069-0.018,0.104
		c-0.004,0.021-0.009,0.039-0.014,0.06c-0.008,0.03-0.016,0.059-0.024,0.09c-0.007,0.021-0.013,0.039-0.021,0.06
		c-0.01,0.026-0.021,0.057-0.032,0.082c-0.009,0.02-0.017,0.037-0.024,0.057c-0.015,0.025-0.027,0.053-0.043,0.076
		c-0.01,0.018-0.018,0.033-0.027,0.051c-0.018,0.025-0.037,0.053-0.057,0.08c-0.011,0.012-0.018,0.023-0.025,0.035
		c-0.028,0.035-0.061,0.07-0.092,0.104c-0.011,0.012-0.021,0.02-0.029,0.027c-0.025,0.021-0.051,0.045-0.075,0.066
		c-0.017,0.014-0.031,0.021-0.046,0.033c-0.021,0.016-0.047,0.032-0.07,0.047c-0.018,0.014-0.031,0.021-0.05,0.03
		c-0.024,0.015-0.05,0.026-0.074,0.039c-0.019,0.011-0.037,0.019-0.055,0.024c-0.026,0.013-0.054,0.022-0.079,0.03
		c-0.02,0.009-0.038,0.015-0.059,0.022c-0.029,0.009-0.06,0.015-0.088,0.021c-0.019,0.004-0.037,0.01-0.056,0.016
		c-0.039,0.006-0.078,0.013-0.117,0.017c-0.01,0.002-0.021,0.002-0.032,0.004C43.553,45.998,43.505,46,43.456,46
		c-0.002,0-0.004,0-0.007,0c-0.042,0-0.083-0.002-0.126-0.006c-0.019-0.002-0.035-0.002-0.054-0.004
		c-0.061-0.007-0.121-0.017-0.184-0.031l-6.161-1.331c-0.479-0.146-0.842-0.558-0.924-1.063c-0.004-0.017-0.004,0.312-0.004-2.199
		c0-0.644,0-1.34,0-2.08c0-0.532,0-1.091,0-1.663c0-0.718,0-1.458,0-2.219v-0.002c0-0.549,0-1.102,0-1.663c0-0.733,0-1.478,0-2.22
		c0-0.557,0-1.111,0-1.663c0-0.75,0.001-1.492,0.001-2.222c0-0.564,0-1.121,0-1.661c0.001-0.772,0.001-1.517,0.001-2.22
		c0-0.583,0-1.14,0-1.663v-0.001c0-0.837,0-1.586,0.002-2.22c0-0.719,0-1.285,0-1.663l0,0c0-0.343,0-0.53,0-0.53
		c0-0.219-0.043-0.43-0.106-0.634c-0.104-0.34-0.278-0.657-0.521-0.92c-0.233-0.252-0.521-0.449-0.836-0.583
		c-0.19-0.081-0.388-0.145-0.597-0.169c-0.039-0.005-0.075-0.005-0.112-0.008c-0.037-0.002-0.074-0.006-0.11-0.006
		c-0.035-0.001-0.07,0-0.104,0.003c-0.022,0-0.047,0-0.069,0.002c-0.039,0.002-0.075,0.008-0.114,0.013
		c-0.019,0.003-0.037,0.004-0.058,0.007c-0.045,0.008-0.089,0.019-0.134,0.029c-0.012,0.001-0.023,0.003-0.032,0.008
		c-0.028,0.006-0.056,0.017-0.083,0.024c-0.027,0.01-0.055,0.017-0.081,0.025c-0.002,0.001-0.005,0.003-0.008,0.004
		s-0.005,0.002-0.007,0.003c-0.023,0.009-0.047,0.019-0.069,0.028c-0.021,0.011-0.047,0.019-0.069,0.029
		c-0.007,0.004-0.014,0.008-0.021,0.012c-0.007,0.004-0.015,0.007-0.022,0.013c-0.031,0.017-0.065,0.033-0.1,0.053
		c-0.018,0.011-0.033,0.021-0.049,0.033c-0.03,0.017-0.059,0.037-0.088,0.058c-0.018,0.012-0.032,0.025-0.049,0.038
		c-0.027,0.02-0.053,0.042-0.078,0.064c-0.017,0.014-0.03,0.027-0.047,0.043c-0.022,0.022-0.047,0.045-0.068,0.069
		c-0.016,0.015-0.031,0.032-0.044,0.05c-0.021,0.023-0.042,0.049-0.062,0.074c-0.009,0.01-0.015,0.018-0.021,0.026
		c-0.008,0.008-0.016,0.018-0.021,0.027c-0.01,0.014-0.019,0.026-0.027,0.04c-0.01,0.015-0.019,0.027-0.025,0.042
		c-0.014,0.02-0.023,0.037-0.035,0.057c-0.017,0.027-0.033,0.058-0.048,0.089c-0.012,0.02-0.021,0.039-0.028,0.059
		c-0.016,0.031-0.029,0.064-0.041,0.098c-0.008,0.02-0.017,0.037-0.021,0.059c-0.014,0.037-0.026,0.074-0.036,0.113
		c-0.004,0.017-0.011,0.032-0.017,0.05c-0.014,0.056-0.024,0.113-0.034,0.172c-0.019,0.102-0.026,0.207-0.026,0.314
		c0,0.002,0,0.717,0,1.909c0,0.483,0,1.041,0.001,1.664H31.88c0.001,0.674,0.001,1.419,0.001,2.22c0,0.532,0,1.089,0.001,1.663
		c0,0.718,0,1.458,0,2.22c0,0.548,0,1.104,0,1.662c0,0.736,0,1.478,0,2.223c0.001,0.484,0.001,0.973,0.001,1.456
		c0,0.034,0,0.067,0,0.103s0,0.069,0,0.104c0,0.75,0,1.493,0,2.219c0,0.195,0,0.386,0,0.578c0,0.367,0,0.729,0,1.085
		c0,0.775,0,1.52,0,2.219c0,0.59,0,1.146,0,1.666c0,0.793-0.001-0.502-0.001,0.082l0,0c0,1.153-0.001,1.846-0.002,1.857
		c-0.101,0.641-0.651,1.13-1.321,1.13c-0.022,0-6.2-1.329-6.2-1.329h-0.08c0,0-6.177,1.329-6.198,1.329
		c-0.669,0-1.222-0.489-1.321-1.13c-0.001-0.014-0.002-0.704-0.002-1.857l0,0c0-0.584-0.002,0.711-0.002-0.082
		c0-0.52,0-1.076,0-1.666c0-0.699,0-1.442,0-2.219c0-0.354,0-0.718,0-1.085c0-0.192,0-0.383,0-0.578c0-0.726,0-1.469,0-2.219
		c0-0.035,0-0.069,0-0.104s0-0.067,0-0.103c0-0.483,0-0.972,0.002-1.456c0-0.745,0-1.484,0-2.223c0-0.559,0-1.114,0-1.662
		c0-0.762,0-1.502,0-2.22c0.001-0.573,0.001-1.13,0.001-1.663c0-0.801,0-1.546,0.001-2.22h-0.001
		c0.001-0.623,0.001-1.181,0.001-1.664c0-1.192,0-1.907,0-1.909c0-0.107-0.011-0.213-0.027-0.314
		c-0.009-0.059-0.021-0.116-0.034-0.172c-0.006-0.018-0.012-0.033-0.017-0.05c-0.01-0.039-0.021-0.076-0.035-0.113
		c-0.006-0.021-0.016-0.039-0.022-0.059c-0.012-0.033-0.025-0.066-0.041-0.098c-0.009-0.02-0.019-0.039-0.028-0.059
		c-0.015-0.031-0.031-0.062-0.049-0.089c-0.01-0.02-0.022-0.037-0.034-0.057c-0.009-0.015-0.018-0.027-0.027-0.042
		c-0.009-0.014-0.017-0.026-0.027-0.04c-0.006-0.01-0.014-0.019-0.02-0.027c-0.007-0.009-0.014-0.017-0.021-0.026
		c-0.02-0.025-0.041-0.051-0.062-0.074c-0.014-0.018-0.029-0.035-0.044-0.05c-0.022-0.024-0.046-0.047-0.069-0.069
		c-0.016-0.016-0.031-0.029-0.047-0.043c-0.025-0.022-0.05-0.045-0.078-0.064c-0.017-0.013-0.031-0.026-0.049-0.038
		c-0.029-0.021-0.058-0.041-0.087-0.058c-0.017-0.012-0.032-0.022-0.05-0.033c-0.032-0.02-0.066-0.036-0.099-0.053
		c-0.008-0.006-0.016-0.009-0.023-0.013c-0.007-0.004-0.014-0.008-0.021-0.012c-0.022-0.011-0.047-0.019-0.069-0.029
		c-0.022-0.01-0.045-0.02-0.068-0.028c-0.002-0.001-0.006-0.002-0.008-0.003s-0.005-0.003-0.007-0.004
		c-0.027-0.009-0.055-0.016-0.081-0.025c-0.028-0.008-0.055-0.019-0.083-0.024c-0.009-0.005-0.021-0.007-0.033-0.008
		c-0.044-0.011-0.089-0.021-0.133-0.029c-0.02-0.003-0.039-0.004-0.058-0.007c-0.038-0.005-0.077-0.011-0.115-0.013
		c-0.023-0.002-0.046-0.002-0.068-0.002c-0.035-0.003-0.068-0.004-0.104-0.003c-0.037,0-0.074,0.004-0.11,0.006
		c-0.037,0.003-0.074,0.003-0.112,0.008c-0.209,0.024-0.407,0.088-0.597,0.169c-0.314,0.134-0.603,0.331-0.837,0.583
		c-0.24,0.263-0.416,0.58-0.521,0.92c-0.063,0.204-0.105,0.415-0.105,0.634c0,0,0,0.188,0,0.53l0,0c0,0.378,0,0.944,0,1.663
		c0.001,0.634,0.001,1.383,0.001,2.22v0.001c0,0.523,0,1.08,0,1.663c0,0.704,0,1.447,0.002,2.22c0,0.54,0,1.097,0,1.661
		c0,0.729,0.001,1.472,0.001,2.222c0,0.552,0,1.106,0,1.663c0,0.742,0,1.484,0,2.22c0,0.562,0,1.114,0,1.663v0.002
		c0,0.761,0,1.501,0,2.219c0,0.572,0,1.131,0,1.663c0,0.74,0,1.438,0,2.08c0,2.513,0,2.185-0.004,2.199
		c-0.082,0.507-0.445,0.917-0.924,1.063l-6.163,1.331c-0.062,0.015-0.123,0.024-0.182,0.031c-0.019,0.002-0.035,0.002-0.053,0.004
		C5.275,45.998,5.233,46,5.192,46c-0.004,0-0.006,0-0.009,0c-0.049,0-0.096-0.002-0.145-0.006c-0.011-0.002-0.022-0.002-0.033-0.004
		c-0.038-0.004-0.077-0.011-0.117-0.017c-0.018-0.008-0.038-0.012-0.057-0.017c-0.027-0.008-0.058-0.014-0.087-0.022
		c-0.02-0.008-0.039-0.014-0.058-0.021c-0.025-0.008-0.054-0.02-0.079-0.029c-0.019-0.008-0.037-0.016-0.055-0.025
		c-0.025-0.012-0.05-0.024-0.074-0.039c-0.018-0.01-0.035-0.018-0.051-0.03c-0.023-0.015-0.048-0.03-0.07-0.047
		c-0.015-0.013-0.03-0.021-0.045-0.033c-0.025-0.022-0.051-0.045-0.075-0.067c-0.01-0.008-0.02-0.017-0.029-0.026
		c-0.032-0.032-0.063-0.067-0.093-0.103C4.107,45.5,4.098,45.488,4.09,45.476c-0.02-0.026-0.04-0.053-0.057-0.08
		c-0.01-0.016-0.019-0.032-0.027-0.049c-0.016-0.024-0.03-0.051-0.043-0.078c-0.009-0.019-0.016-0.036-0.024-0.055
		c-0.012-0.027-0.024-0.057-0.033-0.082c-0.007-0.021-0.014-0.039-0.02-0.061c-0.009-0.031-0.018-0.061-0.024-0.09
		c-0.005-0.021-0.011-0.039-0.015-0.061c-0.007-0.035-0.012-0.07-0.017-0.104c-0.002-0.018-0.004-0.035-0.006-0.055
		c-0.005-0.051-0.009-0.105-0.009-0.164v-6.877V37.38v-1.664v-2.218v-0.002v-1.663v-2.219v-1.665V25.73v-1.663v-0.001v-2.218v-1.663
		l0,0v-2.222v-1.662l0,0V14.08v-0.937"/>
	<g>
		<path fill="#FF7229" d="M28.859,11.183c0.074,0,0.147,0.044,0.181,0.112c0.054,0.115-0.017,0.22-0.088,0.311l-0.004,0.002
			l-4.332,5.502c-0.056,0.072-0.062,0.216-0.011,0.29c0.026,0.034,2.344,3.392,2.42,3.508c0.095,0.133,0.1,0.529-0.113,0.688
			l-6.961,5.347c-0.091,0.069-0.154,0.106-0.24,0.11c-0.069-0.008-0.139-0.057-0.17-0.115c-0.055-0.11,0.01-0.217,0.087-0.315
			l4.33-5.499c0.062-0.081,0.065-0.214,0.012-0.292l-2.418-3.478c-0.16-0.229-0.109-0.549,0.11-0.718l6.965-5.35
			C28.725,11.214,28.79,11.183,28.859,11.183 M28.859,10.183c-0.385,0-0.659,0.173-0.832,0.304l-6.976,5.356
			c-0.649,0.499-0.79,1.415-0.32,2.084l2.096,3.014l-3.986,5.062c-0.469,0.6-0.325,1.121-0.197,1.379
			c0.195,0.373,0.557,0.619,0.954,0.664l0.079,0.01l0.079-0.004c0.367-0.018,0.621-0.178,0.802-0.314l6.962-5.349
			c0.66-0.494,0.719-1.497,0.322-2.058c-0.002-0.002-1.421-2.064-2.097-3.041l3.899-4.954l0.088-0.108
			c0.463-0.582,0.332-1.099,0.211-1.355C29.748,10.452,29.322,10.183,28.859,10.183L28.859,10.183z"/>
	</g>
</g>
</svg>
